<svg width="707" height="707" viewBox="0 0 707 707" fill="none" xmlns="http://www.w3.org/2000/svg">
<path d="M353.5 707C548.733 707 707 548.733 707 353.5C707 158.267 548.733 0 353.5 0C158.267 0 0 158.267 0 353.5C0 548.733 158.267 707 353.5 707Z" fill="#FFFFFC"/>
<path d="M353.5 699.786C544.748 699.786 699.786 544.748 699.786 353.5C699.786 162.252 544.748 7.21436 353.5 7.21436C162.252 7.21436 7.21436 162.252 7.21436 353.5C7.21436 544.748 162.252 699.786 353.5 699.786Z" fill="#D90051"/>
<path d="M353.5 692.571C540.764 692.571 692.572 540.764 692.572 353.5C692.572 166.236 540.764 14.4285 353.5 14.4285C166.236 14.4285 14.4287 166.236 14.4287 353.5C14.4287 540.764 166.236 692.571 353.5 692.571Z" fill="#FFFFFC"/>
<path d="M353.5 627.643C504.905 627.643 627.643 504.905 627.643 353.5C627.643 202.095 504.905 79.3572 353.5 79.3572C202.095 79.3572 79.3569 202.095 79.3569 353.5C79.3569 504.905 202.095 627.643 353.5 627.643Z" fill="#0E0628"/>
<path d="M353.5 620.429C500.92 620.429 620.428 500.921 620.428 353.5C620.428 206.08 500.92 86.5715 353.5 86.5715C206.079 86.5715 86.5713 206.08 86.5713 353.5C86.5713 500.921 206.079 620.429 353.5 620.429Z" fill="#60B3CA"/>
<path d="M353.5 613.214C496.936 613.214 613.214 496.936 613.214 353.5C613.214 210.064 496.936 93.7856 353.5 93.7856C210.064 93.7856 93.7856 210.064 93.7856 353.5C93.7856 496.936 210.064 613.214 353.5 613.214Z" fill="#0E0628"/>
<path d="M353.5 424.056C392.467 424.056 424.056 392.467 424.056 353.5C424.056 314.533 392.467 282.944 353.5 282.944C314.533 282.944 282.944 314.533 282.944 353.5C282.944 392.467 314.533 424.056 353.5 424.056Z" fill="#273A59"/>
<path d="M353.5 406.309C382.665 406.309 406.309 382.665 406.309 353.5C406.309 324.335 382.665 300.691 353.5 300.691C324.335 300.691 300.691 324.335 300.691 353.5C300.691 382.665 324.335 406.309 353.5 406.309Z" fill="#49839D"/>
<path d="M393.9 353.5C393.9 338.494 385.748 325.436 373.628 318.511H333.3C321.18 325.509 313.028 338.566 313.028 353.5C313.028 368.506 321.18 381.564 333.3 388.489H373.628C385.748 381.564 393.9 368.506 393.9 353.5Z" fill="#60B3CA"/>
<path d="M353.5 313.1C346.141 313.1 339.288 315.048 333.372 318.511H373.7C367.712 315.048 360.858 313.1 353.5 313.1Z" fill="#FFFFFC"/>
<path d="M373.628 388.489H333.3C339.216 391.88 346.142 393.9 353.428 393.9C360.715 393.9 367.712 391.952 373.628 388.489Z" fill="#FFFFFC"/>
<path d="M350.903 364.105L327.528 350.182C326.591 349.604 326.591 348.306 327.456 347.729L341.163 338.711C341.885 338.206 342.029 337.196 341.452 336.547L331.352 325.869C331.063 325.581 330.703 325.437 330.27 325.437H324.354C319.448 330.487 315.841 336.835 314.11 343.905L323.128 353.067L333.949 356.025C334.815 356.242 335.248 357.251 334.887 358.045L331.929 364.249C331.641 364.826 331.785 365.476 332.218 365.909L336.979 370.598C337.34 370.959 337.484 371.391 337.412 371.896L335.103 385.243C334.959 385.964 335.464 386.686 336.186 386.902C336.763 387.046 337.412 386.83 337.701 386.325L351.191 366.269C351.841 365.404 351.624 364.538 350.903 364.105Z" fill="#0B5351"/>
<path d="M351.264 321.18C350.903 320.603 350.182 320.386 349.532 320.603L338.206 324.931C337.557 325.148 337.629 326.158 338.278 326.302L341.38 327.096C341.813 327.24 342.174 327.529 342.39 327.961L344.699 333.444C345.059 334.238 345.997 334.599 346.719 334.166L354.799 329.621C355.52 329.188 355.737 328.25 355.304 327.601L351.264 321.18Z" fill="#0B5351"/>
<path d="M388.634 350.686L385.676 348.955C384.954 348.522 385.387 347.512 386.109 347.584L393.611 348.739C392.746 341.019 389.644 333.877 384.954 328.106H374.71C373.844 328.106 372.979 328.394 372.329 328.971L363.456 336.691C362.879 337.196 362.806 338.061 363.239 338.639L364.61 340.442L362.518 341.019C361.796 341.236 361.291 341.957 361.508 342.751L361.58 342.967C361.797 343.905 362.806 344.338 363.6 343.977L368.65 341.524C369.011 341.38 369.444 341.308 369.804 341.452L378.101 344.482C378.966 344.771 379.255 345.853 378.75 346.574C378.461 347.007 377.956 347.224 377.451 347.151L363.816 345.348C363.239 345.276 362.662 345.564 362.374 346.069L358.189 353.428C357.901 353.861 357.973 354.438 358.189 354.871L360.57 358.911C360.786 359.344 361.291 359.632 361.796 359.632L368.434 359.849C369.083 359.849 369.66 360.354 369.804 361.003L372.69 376.658C372.834 377.379 373.411 377.884 374.133 377.812L376.514 377.74C377.091 377.74 377.524 377.379 377.74 376.946L389.211 352.49C389.499 351.913 389.283 351.119 388.634 350.686Z" fill="#0B5351"/>
<path d="M349.099 183.243H357.756L353.5 322.334L349.099 183.243Z" fill="#F4C438"/>
<path d="M494.9 349.099V357.757L384.666 353.5L494.9 349.099Z" fill="#F4C438"/>
<path d="M463.59 237.206L469.65 243.338L375.504 331.497L463.59 237.206Z" fill="#F4C438"/>
<path d="M262.6 357.901V349.244L322.334 353.5L262.6 357.901Z" fill="#F4C438"/>
<path d="M277.678 435.599L271.546 429.466L331.497 375.504L277.678 435.599Z" fill="#F4C438"/>
<path d="M294.92 301.124L301.052 295.064L331.496 331.497L294.92 301.124Z" fill="#F4C438"/>
<path d="M357.901 469.65H349.244L353.5 384.666L357.901 469.65Z" fill="#F4C438"/>
<path d="M450.605 444.4L444.472 450.46L375.504 375.504L450.605 444.4Z" fill="#F4C438"/>
<path d="M356.386 160.157H350.614V177.472H356.386V160.157Z" fill="#EA554A"/>
<path d="M356.386 160.157H350.614V168.814H356.386V160.157Z" fill="#D90051"/>
<path d="M349.099 183.243V189.014C349.099 191.395 351.047 193.343 353.428 193.343C355.808 193.343 357.756 191.395 357.756 189.014V183.243H349.099Z" fill="#60B3CA"/>
<path d="M357.828 177.472H349.171C347.584 177.472 346.286 178.77 346.286 180.357C346.286 181.945 347.584 183.243 349.171 183.243H357.828C359.416 183.243 360.714 181.945 360.714 180.357C360.714 178.77 359.416 177.472 357.828 177.472Z" fill="#C7C7C5"/>
<path d="M358.55 160.157V154.386H348.45V160.157H358.55Z" fill="#C7C7C5"/>
<path d="M358.55 156.55V154.386H348.45V156.55H358.55Z" fill="#0E0628"/>
<path d="M357.756 183.243H349.099V186.129H357.756V183.243Z" fill="#0E0628"/>
<path d="M371.536 147.171H335.464V154.386H371.536V147.171Z" fill="#FFFFFC"/>
<path d="M371.536 150.418H335.464V152.582H371.536V150.418Z" fill="#EA554A"/>
<path d="M347.007 147.171H344.122V154.386H347.007V147.171Z" fill="#C7C7C5"/>
<path d="M347.007 150.418H344.122V152.582H347.007V150.418Z" fill="#D90051"/>
<path d="M338.35 154.386H344.122V144.286H338.35V154.386Z" fill="#FFFFFC"/>
<path d="M353.5 108.214C351.913 108.214 350.614 109.513 350.614 111.1V147.172H356.386V111.1C356.386 109.513 355.087 108.214 353.5 108.214Z" fill="#FFFFFC"/>
<path d="M357.829 139.957H349.171V144.286H357.829V139.957Z" fill="#60B3CA"/>
<path d="M356.386 126.611H350.614V128.775H356.386V126.611Z" fill="#EA554A"/>
<path d="M356.386 116.872L359.271 119.036V114.707L356.386 112.543V116.872Z" fill="#C7C7C5"/>
<path d="M350.614 116.872L347.729 119.036V114.707L350.614 112.543V116.872Z" fill="#C7C7C5"/>
<path d="M350.614 492.794H356.386V475.479H350.614V492.794Z" fill="#EA554A"/>
<path d="M350.614 492.794H356.386V484.137H350.614V492.794Z" fill="#D90051"/>
<path d="M357.901 469.65V463.879C357.901 461.498 355.953 459.55 353.572 459.55C351.192 459.55 349.244 461.498 349.244 463.879V469.65H357.901Z" fill="#60B3CA"/>
<path d="M349.171 475.422H357.828C359.416 475.422 360.714 474.123 360.714 472.536C360.714 470.949 359.416 469.65 357.828 469.65H349.171C347.584 469.65 346.286 470.949 346.286 472.536C346.286 474.123 347.584 475.422 349.171 475.422Z" fill="#C7C7C5"/>
<path d="M348.421 492.765V498.536H358.521V492.765H348.421Z" fill="#C7C7C5"/>
<path d="M348.421 496.372V498.536H358.521V496.372H348.421Z" fill="#0E0628"/>
<path d="M349.262 469.708H357.919V466.822H349.262V469.708Z" fill="#0E0628"/>
<path d="M335.464 505.78H371.536V498.565H335.464V505.78Z" fill="#FFFFFC"/>
<path d="M335.464 502.533H371.536V500.369H335.464V502.533Z" fill="#EA554A"/>
<path d="M359.993 505.78H362.878V498.565H359.993V505.78Z" fill="#C7C7C5"/>
<path d="M359.993 502.533H362.878V500.369H359.993V502.533Z" fill="#D90051"/>
<path d="M368.65 498.507H362.878V508.607H368.65V498.507Z" fill="#FFFFFC"/>
<path d="M353.5 544.679C355.087 544.679 356.386 543.38 356.386 541.793V505.721H350.614V541.793C350.614 543.38 351.913 544.679 353.5 544.679Z" fill="#FFFFFC"/>
<path d="M349.218 512.994H357.875V508.665H349.218V512.994Z" fill="#60B3CA"/>
<path d="M350.661 526.34H356.433V524.176H350.661V526.34Z" fill="#EA554A"/>
<path d="M350.614 536.021L347.729 533.857V538.186L350.614 540.35V536.021Z" fill="#C7C7C5"/>
<path d="M356.386 536.021L359.271 533.857V538.186L356.386 540.35V536.021Z" fill="#C7C7C5"/>
<path d="M239.485 350.614V356.386H256.8V350.614H239.485Z" fill="#EA554A"/>
<path d="M239.485 350.614V356.386H248.142V350.614H239.485Z" fill="#D90051"/>
<path d="M262.6 357.901H268.371C270.752 357.901 272.7 355.953 272.7 353.572C272.7 351.191 270.752 349.243 268.371 349.243H262.6V357.901Z" fill="#60B3CA"/>
<path d="M256.828 349.171V357.829C256.828 359.416 258.127 360.714 259.714 360.714C261.301 360.714 262.6 359.416 262.6 357.829V349.171C262.6 347.584 261.301 346.286 259.714 346.286C258.127 346.286 256.828 347.584 256.828 349.171Z" fill="#C7C7C5"/>
<path d="M239.514 348.45H233.743V358.55H239.514V348.45Z" fill="#C7C7C5"/>
<path d="M235.907 348.45H233.743V358.55H235.907V348.45Z" fill="#0E0628"/>
<path d="M262.562 349.253V357.91H265.447V349.253H262.562Z" fill="#0E0628"/>
<path d="M226.499 335.464V371.536H233.713V335.464H226.499Z" fill="#FFFFFC"/>
<path d="M229.746 335.464V371.536H231.91V335.464H229.746Z" fill="#EA554A"/>
<path d="M226.499 359.993V362.879H233.713V359.993H226.499Z" fill="#C7C7C5"/>
<path d="M229.746 359.993V362.879H231.91V359.993H229.746Z" fill="#D90051"/>
<path d="M233.743 368.679V362.907H223.643V368.679H233.743Z" fill="#FFFFFC"/>
<path d="M187.571 353.572C187.571 355.159 188.87 356.458 190.457 356.458H226.528V350.686H190.457C188.87 350.686 187.571 351.913 187.571 353.572Z" fill="#FFFFFC"/>
<path d="M219.334 349.195V357.852H223.663V349.195H219.334Z" fill="#60B3CA"/>
<path d="M205.988 350.638V356.409H208.152V350.638H205.988Z" fill="#EA554A"/>
<path d="M196.228 350.614L198.393 347.729H194.064L191.9 350.614H196.228Z" fill="#C7C7C5"/>
<path d="M196.228 356.458L198.393 359.344H194.064L191.9 356.458H196.228Z" fill="#C7C7C5"/>
<path d="M518.015 356.386V350.615H500.7V356.386H518.015Z" fill="#EA554A"/>
<path d="M518.015 356.386V350.615H509.358V356.386H518.015Z" fill="#D90051"/>
<path d="M494.9 349.1H489.128C486.748 349.1 484.8 351.047 484.8 353.428C484.8 355.809 486.748 357.757 489.128 357.757H494.9V349.1Z" fill="#60B3CA"/>
<path d="M500.671 357.829V349.172C500.671 347.584 499.372 346.286 497.785 346.286C496.198 346.286 494.899 347.584 494.899 349.172V357.829C494.899 359.416 496.198 360.714 497.785 360.714C499.372 360.714 500.671 359.416 500.671 357.829Z" fill="#C7C7C5"/>
<path d="M518.015 358.579H523.786V348.479H518.015V358.579Z" fill="#C7C7C5"/>
<path d="M521.622 358.579H523.786V348.479H521.622V358.579Z" fill="#0E0628"/>
<path d="M494.92 357.747V349.09H492.034V357.747H494.92Z" fill="#0E0628"/>
<path d="M531 371.536V335.464H523.786V371.536H531Z" fill="#FFFFFC"/>
<path d="M527.754 371.536V335.464H525.59V371.536H527.754Z" fill="#EA554A"/>
<path d="M531 347.007V344.122H523.786V347.007H531Z" fill="#C7C7C5"/>
<path d="M527.754 347.007V344.122H525.59V347.007H527.754Z" fill="#D90051"/>
<path d="M523.757 338.379V344.15H533.857V338.379H523.757Z" fill="#FFFFFC"/>
<path d="M569.929 353.5C569.929 351.913 568.63 350.615 567.043 350.615H530.972V356.386H567.043C568.63 356.386 569.929 355.087 569.929 353.5Z" fill="#FFFFFC"/>
<path d="M538.191 357.805V349.148H533.863V357.805H538.191Z" fill="#60B3CA"/>
<path d="M551.538 356.363V350.591H549.374V356.363H551.538Z" fill="#EA554A"/>
<path d="M561.272 356.458L559.107 359.344H563.436L565.6 356.458H561.272Z" fill="#C7C7C5"/>
<path d="M561.272 350.614L559.107 347.729H563.436L565.6 350.614H561.272Z" fill="#C7C7C5"/>
<path d="M485.024 226.03L480.943 221.949L468.7 234.192L472.781 238.273L485.024 226.03Z" fill="#EA554A"/>
<path d="M485.083 226.03L481.002 221.949L474.88 228.071L478.961 232.152L485.083 226.03Z" fill="#D90051"/>
<path d="M463.59 237.206L459.478 241.318C457.819 242.977 457.819 245.719 459.478 247.45C461.137 249.109 463.879 249.109 465.61 247.45L469.722 243.338L463.59 237.206Z" fill="#60B3CA"/>
<path d="M473.835 239.298L467.702 233.166C466.548 232.011 464.745 232.011 463.59 233.166C462.436 234.32 462.436 236.124 463.59 237.278L469.722 243.41C470.877 244.564 472.68 244.564 473.835 243.41C474.989 242.256 474.989 240.452 473.835 239.298Z" fill="#C7C7C5"/>
<path d="M486.596 227.536L490.677 223.455L483.535 216.313L479.454 220.394L486.596 227.536Z" fill="#C7C7C5"/>
<path d="M489.146 225.018L490.677 223.488L483.535 216.346L482.005 217.876L489.146 225.018Z" fill="#0E0628"/>
<path d="M469.67 243.347L463.549 237.226L461.508 239.266L467.63 245.388L469.67 243.347Z" fill="#0E0628"/>
<path d="M504.943 227.56L479.437 202.054L474.335 207.155L499.841 232.662L504.943 227.56Z" fill="#FFFFFC"/>
<path d="M502.654 229.856L477.147 204.35L475.617 205.88L501.123 231.386L502.654 229.856Z" fill="#EA554A"/>
<path d="M487.598 210.194L485.558 208.154L480.456 213.255L482.497 215.295L487.598 210.194Z" fill="#C7C7C5"/>
<path d="M485.31 212.489L483.27 210.449L481.739 211.979L483.78 214.02L485.31 212.489Z" fill="#D90051"/>
<path d="M476.396 209.205L480.477 213.286L487.618 206.144L483.537 202.063L476.396 209.205Z" fill="#FFFFFC"/>
<path d="M519.717 187.283C518.563 186.129 516.759 186.129 515.605 187.283L490.066 212.822L494.179 216.934L519.717 191.395C520.871 190.241 520.871 188.365 519.717 187.283Z" fill="#FFFFFC"/>
<path d="M500.35 212.774L494.229 206.652L491.168 209.713L497.289 215.834L500.35 212.774Z" fill="#60B3CA"/>
<path d="M508.724 202.316L504.643 198.235L503.112 199.765L507.193 203.846L508.724 202.316Z" fill="#EA554A"/>
<path d="M515.677 195.435L516.182 199.042L519.212 195.94L518.707 192.405L515.677 195.435Z" fill="#C7C7C5"/>
<path d="M511.565 191.323L507.958 190.818L511.06 187.788L514.595 188.293L511.565 191.323Z" fill="#C7C7C5"/>
<path d="M256.209 446.758L260.29 450.839L272.533 438.596L268.452 434.515L256.209 446.758Z" fill="#EA554A"/>
<path d="M256.165 446.758L260.246 450.839L266.368 444.718L262.287 440.637L256.165 446.758Z" fill="#D90051"/>
<path d="M277.678 435.599L281.79 431.486C283.449 429.827 283.449 427.086 281.79 425.354C280.13 423.695 277.389 423.695 275.658 425.354L271.545 429.466L277.678 435.599Z" fill="#60B3CA"/>
<path d="M267.434 433.506L273.566 439.639C274.72 440.793 276.524 440.793 277.678 439.639C278.832 438.484 278.832 436.681 277.678 435.526L271.546 429.394C270.391 428.24 268.588 428.24 267.434 429.394C266.279 430.549 266.279 432.352 267.434 433.506Z" fill="#C7C7C5"/>
<path d="M254.645 445.217L250.564 449.298L257.706 456.44L261.787 452.359L254.645 445.217Z" fill="#C7C7C5"/>
<path d="M252.094 447.8L250.564 449.331L257.706 456.473L259.236 454.942L252.094 447.8Z" fill="#0E0628"/>
<path d="M271.526 429.451L277.647 435.572L279.687 433.532L273.566 427.41L271.526 429.451Z" fill="#0E0628"/>
<path d="M236.285 445.177L261.792 470.683L266.893 465.582L241.387 440.076L236.285 445.177Z" fill="#FFFFFC"/>
<path d="M238.588 442.881L264.094 468.387L265.625 466.857L240.118 441.351L238.588 442.881Z" fill="#EA554A"/>
<path d="M253.63 462.601L255.67 464.641L260.772 459.54L258.731 457.5L253.63 462.601Z" fill="#C7C7C5"/>
<path d="M255.933 460.305L257.973 462.346L259.504 460.815L257.463 458.775L255.933 460.305Z" fill="#D90051"/>
<path d="M264.888 463.592L260.807 459.511L253.665 466.653L257.746 470.734L264.888 463.592Z" fill="#FFFFFC"/>
<path d="M221.551 485.522C222.705 486.676 224.509 486.676 225.663 485.522L251.201 459.983L247.089 455.871L221.551 481.409C220.396 482.564 220.396 484.367 221.551 485.522Z" fill="#FFFFFC"/>
<path d="M240.908 460.01L247.029 466.132L250.09 463.071L243.969 456.95L240.908 460.01Z" fill="#60B3CA"/>
<path d="M232.499 470.519L236.58 474.6L238.11 473.07L234.029 468.989L232.499 470.519Z" fill="#EA554A"/>
<path d="M225.591 477.369L225.086 473.762L221.984 476.792L222.489 480.399L225.591 477.369Z" fill="#C7C7C5"/>
<path d="M229.703 481.482L233.238 481.987L230.208 485.017L226.601 484.512L229.703 481.482Z" fill="#C7C7C5"/>
<path d="M283.765 279.668L279.684 283.749L291.927 295.992L296.008 291.911L283.765 279.668Z" fill="#EA554A"/>
<path d="M283.706 279.668L279.625 283.749L285.746 289.871L289.827 285.79L283.706 279.668Z" fill="#D90051"/>
<path d="M294.92 301.197L299.032 305.309C300.691 306.968 303.433 306.968 305.164 305.309C306.823 303.649 306.823 300.908 305.164 299.177L301.052 295.064L294.92 301.197Z" fill="#60B3CA"/>
<path d="M297.012 290.88L290.88 297.012C289.726 298.167 289.726 299.97 290.88 301.124C292.034 302.279 293.838 302.279 294.992 301.124L301.124 294.992C302.278 293.838 302.278 292.034 301.124 290.88C299.97 289.798 298.166 289.798 297.012 290.88Z" fill="#C7C7C5"/>
<path d="M285.285 278.182L281.204 274.101L274.062 281.243L278.143 285.324L285.285 278.182Z" fill="#C7C7C5"/>
<path d="M282.734 275.599L281.204 274.068L274.062 281.21L275.593 282.74L282.734 275.599Z" fill="#0E0628"/>
<path d="M300.994 295.05L294.872 301.172L296.913 303.212L303.034 297.091L300.994 295.05Z" fill="#0E0628"/>
<path d="M285.273 259.773L259.767 285.279L264.868 290.381L290.374 264.874L285.273 259.773Z" fill="#FFFFFC"/>
<path d="M287.561 262.069L262.055 287.575L263.585 289.105L289.091 263.599L287.561 262.069Z" fill="#EA554A"/>
<path d="M267.928 277.14L265.888 279.18L270.989 284.281L273.029 282.241L267.928 277.14Z" fill="#C7C7C5"/>
<path d="M270.217 279.435L268.176 281.476L269.707 283.006L271.747 280.965L270.217 279.435Z" fill="#D90051"/>
<path d="M266.899 288.382L270.979 284.301L263.838 277.159L259.757 281.24L266.899 288.382Z" fill="#FFFFFC"/>
<path d="M244.925 244.997C243.771 246.151 243.771 247.955 244.925 249.109L270.463 274.648L274.576 270.536L249.037 244.997C247.883 243.915 246.079 243.915 244.925 244.997Z" fill="#FFFFFC"/>
<path d="M270.447 264.357L264.326 270.479L267.386 273.539L273.508 267.418L270.447 264.357Z" fill="#60B3CA"/>
<path d="M259.982 255.991L255.901 260.072L257.431 261.603L261.512 257.522L259.982 255.991Z" fill="#EA554A"/>
<path d="M253.149 249.037L256.756 248.532L253.654 245.502L250.119 246.007L253.149 249.037Z" fill="#C7C7C5"/>
<path d="M249.037 253.149L248.532 256.757L245.502 253.654L246.007 250.119L249.037 253.149Z" fill="#C7C7C5"/>
<path d="M461.784 465.867L465.865 461.786L453.622 449.543L449.541 453.624L461.784 465.867Z" fill="#EA554A"/>
<path d="M461.727 465.867L465.808 461.786L459.686 455.664L455.605 459.745L461.727 465.867Z" fill="#D90051"/>
<path d="M450.604 444.4L446.492 440.288C444.832 438.629 442.091 438.629 440.36 440.288C438.628 441.947 438.7 444.689 440.36 446.42L444.472 450.532L450.604 444.4Z" fill="#60B3CA"/>
<path d="M448.511 454.644L454.643 448.512C455.798 447.358 455.798 445.554 454.643 444.4C453.489 443.246 451.685 443.246 450.531 444.4L444.399 450.532C443.245 451.687 443.245 453.49 444.399 454.644C445.553 455.727 447.357 455.727 448.511 454.644Z" fill="#C7C7C5"/>
<path d="M460.22 467.425L464.301 471.506L471.443 464.364L467.362 460.283L460.22 467.425Z" fill="#C7C7C5"/>
<path d="M462.77 469.943L464.301 471.473L471.442 464.331L469.912 462.801L462.77 469.943Z" fill="#0E0628"/>
<path d="M444.492 450.475L450.613 444.354L448.573 442.313L442.451 448.435L444.492 450.475Z" fill="#0E0628"/>
<path d="M460.232 485.761L485.738 460.255L480.637 455.154L455.131 480.66L460.232 485.761Z" fill="#FFFFFC"/>
<path d="M457.929 483.466L483.436 457.96L481.905 456.429L456.399 481.935L457.929 483.466Z" fill="#EA554A"/>
<path d="M477.577 468.439L479.617 466.399L474.516 461.298L472.475 463.338L477.577 468.439Z" fill="#C7C7C5"/>
<path d="M475.273 466.144L477.313 464.103L475.783 462.573L473.743 464.613L475.273 466.144Z" fill="#D90051"/>
<path d="M478.579 457.195L474.498 461.276L481.64 468.418L485.721 464.337L478.579 457.195Z" fill="#FFFFFC"/>
<path d="M500.527 500.527C501.681 499.373 501.681 497.569 500.527 496.415L474.988 470.876L470.876 474.989L496.414 500.527C497.569 501.681 499.444 501.681 500.527 500.527Z" fill="#FFFFFC"/>
<path d="M475.027 481.131L481.148 475.009L478.088 471.948L471.966 478.07L475.027 481.131Z" fill="#60B3CA"/>
<path d="M485.527 489.548L489.608 485.467L488.078 483.936L483.997 488.017L485.527 489.548Z" fill="#EA554A"/>
<path d="M492.375 496.487L488.768 496.992L491.87 500.022L495.405 499.517L492.375 496.487Z" fill="#C7C7C5"/>
<path d="M496.486 492.375L496.991 488.768L500.021 491.87L499.516 495.405L496.486 492.375Z" fill="#C7C7C5"/>
<path d="M171.7 259.354C166.794 258.993 162.827 255.025 162.466 250.119C162.466 249.686 162.105 249.326 161.6 249.326C161.167 249.326 160.807 249.686 160.734 250.119C160.374 255.025 156.406 258.993 151.5 259.354C151.067 259.354 150.707 259.714 150.707 260.219C150.707 260.652 151.067 261.013 151.5 261.085C156.406 261.446 160.374 265.414 160.734 270.319C160.734 270.752 161.095 271.113 161.6 271.113C162.033 271.113 162.394 270.752 162.466 270.319C162.827 265.414 166.794 261.446 171.7 261.085C172.133 261.085 172.494 260.724 172.494 260.219C172.422 259.786 172.133 259.426 171.7 259.354Z" fill="#EA554A"/>
<path d="M169.969 445.987C165.063 445.627 161.095 441.659 160.734 436.753C160.734 436.32 160.374 435.959 159.869 435.959C159.436 435.959 159.075 436.32 159.003 436.753C158.642 441.659 154.674 445.627 149.769 445.987C149.336 445.987 148.975 446.348 148.975 446.853C148.975 447.286 149.336 447.647 149.769 447.719C154.674 448.079 158.642 452.047 159.003 456.953C159.003 457.386 159.364 457.747 159.869 457.747C160.302 457.747 160.662 457.386 160.734 456.953C161.095 452.047 165.063 448.079 169.969 447.719C170.402 447.719 170.762 447.358 170.762 446.853C170.762 446.42 170.402 446.059 169.969 445.987Z" fill="#EA554A"/>
<path d="M183.604 281.79C181.151 281.574 179.203 279.626 178.987 277.173C178.987 276.957 178.77 276.812 178.554 276.812C178.337 276.812 178.121 276.957 178.121 277.173C177.904 279.626 175.957 281.574 173.504 281.79C173.287 281.79 173.143 282.007 173.143 282.223C173.143 282.439 173.287 282.656 173.504 282.656C175.957 282.872 177.904 284.82 178.121 287.273C178.121 287.489 178.337 287.634 178.554 287.634C178.77 287.634 178.987 287.489 178.987 287.273C179.203 284.82 181.151 282.872 183.604 282.656C183.82 282.656 183.964 282.439 183.964 282.223C183.964 282.007 183.82 281.79 183.604 281.79Z" fill="#EA554A"/>
<path d="M432.28 180.429C429.827 180.213 427.879 178.265 427.663 175.812C427.663 175.596 427.446 175.451 427.23 175.451C427.014 175.451 426.797 175.596 426.797 175.812C426.581 178.265 424.633 180.213 422.18 180.429C421.964 180.429 421.819 180.646 421.819 180.862C421.819 181.079 421.964 181.295 422.18 181.295C424.633 181.511 426.581 183.459 426.797 185.912C426.797 186.129 427.014 186.273 427.23 186.273C427.446 186.273 427.663 186.129 427.663 185.912C427.879 183.459 429.827 181.511 432.28 181.295C432.496 181.295 432.641 181.079 432.641 180.862C432.641 180.646 432.496 180.429 432.28 180.429Z" fill="#EA554A"/>
<path d="M462.58 548.646C460.127 548.43 458.179 546.482 457.963 544.029C457.963 543.813 457.746 543.668 457.53 543.668C457.313 543.668 457.097 543.813 457.097 544.029C456.881 546.482 454.933 548.43 452.48 548.646C452.263 548.646 452.119 548.863 452.119 549.079C452.119 549.296 452.263 549.512 452.48 549.512C454.933 549.729 456.881 551.676 457.097 554.129C457.097 554.346 457.313 554.49 457.53 554.49C457.746 554.49 457.963 554.346 457.963 554.129C458.179 551.676 460.127 549.729 462.58 549.512C462.796 549.512 462.941 549.296 462.941 549.079C462.941 548.863 462.796 548.646 462.58 548.646Z" fill="#EA554A"/>
<path d="M86.0667 198.537L95.301 212.821L91.4053 220.18L74.4517 220.541L94.8681 231.362L89.8903 240.813L53.2417 221.334L58.436 211.378L83.3974 211.162L69.546 190.457L74.8124 180.501L111.461 199.98L106.483 209.431L86.0667 198.537Z" fill="#0E0628"/>
<path d="M137.865 165.928L124.447 182.521L118.026 177.327L121.417 173.215L102.082 157.56L98.6917 161.672L92.271 156.478L105.69 139.885L112.11 145.079L108.72 149.191L128.054 164.846L131.445 160.734L137.865 165.928Z" fill="#0E0628"/>
<path d="M146.739 143.564C155.324 136.927 161.023 132.31 163.909 129.785C164.558 129.208 164.991 128.486 164.991 127.765C165.063 127.043 164.775 126.322 164.198 125.601L160.663 121.561L150.418 130.578C147.316 133.32 144.43 134.546 141.761 134.402C139.092 134.186 136.423 132.598 133.681 129.424L132.527 128.053C129.785 124.951 128.559 122.066 128.703 119.396C128.92 116.727 130.507 114.058 133.681 111.316L149.336 97.6091L154.819 103.886L140.895 116.006C139.092 117.593 139.02 119.252 140.535 121.056L141.328 121.921C142.915 123.725 144.575 123.797 146.378 122.282L154.386 115.284C157.272 112.759 160.013 111.533 162.61 111.749C165.208 111.893 167.733 113.481 170.258 116.366L172.205 118.603C174.73 121.488 175.957 124.23 175.74 126.827C175.596 129.424 174.009 131.949 171.123 134.474C169.608 135.773 167.949 137.143 166.218 138.586L161.961 141.977C158.787 144.502 155.468 147.027 152.005 149.552L146.739 143.564Z" fill="#0E0628"/>
<path d="M192.117 107.06C201.784 102.226 208.349 98.8357 211.667 96.8879C212.461 96.455 212.966 95.8779 213.182 95.0843C213.399 94.2907 213.254 93.5693 212.822 92.7757L210.152 88.1586L198.321 94.94C194.714 97.0321 191.612 97.6814 189.087 96.96C186.489 96.2386 184.181 94.1464 182.161 90.5393L181.295 89.0243C179.203 85.4171 178.554 82.315 179.275 79.79C179.997 77.1929 182.089 74.8843 185.696 72.8643L203.732 62.5479L207.844 69.7621L191.828 78.9243C189.736 80.0786 189.303 81.7378 190.529 83.7578L191.107 84.7679C192.261 86.86 193.92 87.2929 195.94 86.0664L205.174 80.8C208.565 78.8521 211.451 78.275 213.904 78.9243C216.357 79.5736 218.593 81.5936 220.541 84.9843L221.984 87.5814C223.932 90.9721 224.509 93.8578 223.859 96.3107C223.21 98.7636 221.19 101 217.799 102.948C216.068 103.958 214.192 104.968 212.172 106.05L207.339 108.575C203.732 110.379 199.98 112.254 196.084 114.058L192.117 107.06Z" fill="#0E0628"/>
<path d="M266.712 81.3769L246.657 88.5912L243.843 80.7998L248.893 78.9962L240.38 55.5498L235.33 57.3534L232.517 49.5619L252.572 42.3477L255.386 50.1391L250.336 51.9427L258.777 75.3891L263.827 73.5855L266.712 81.3769Z" fill="#0E0628"/>
<path d="M323.2 57.7864C323.849 61.8986 323.489 65.0007 321.901 67.165C320.386 69.3293 317.573 70.7721 313.461 71.4214L298.816 73.8743C294.704 74.5236 291.601 74.1628 289.437 72.5757C287.273 71.0607 285.83 68.2471 285.181 64.135L282.006 45.45C281.357 41.3378 281.718 38.2357 283.305 36.0714C284.82 33.9071 287.634 32.4643 291.746 31.815L306.391 29.3621C310.503 28.7128 313.605 29.0735 315.769 30.6607C317.934 32.1757 319.376 34.9893 320.026 39.1014L323.2 57.7864ZM309.493 40.8328C309.132 38.5243 307.761 37.5143 305.381 37.875L295.425 39.5343C293.116 39.895 292.106 41.2657 292.467 43.6464L295.569 62.3314C295.93 64.64 297.301 65.65 299.681 65.2893L309.637 63.63C311.946 63.2693 312.956 61.8986 312.595 59.5178L309.493 40.8328Z" fill="#0E0628"/>
<path d="M383.079 69.1127L371.825 68.6799L358.623 43.2135L357.613 68.1027L346.936 67.6699L348.595 26.1877L359.849 26.6206L373.051 52.087L374.061 27.1977L384.738 27.6306L383.079 69.1127Z" fill="#0E0628"/>
<path d="M444.4 73.2971C454.284 77.7699 460.993 80.7278 464.528 82.1706C465.394 82.5313 466.115 82.5313 466.837 82.2428C467.558 81.9542 468.063 81.3771 468.352 80.5113L470.3 75.5335L457.602 70.5556C453.707 69.0406 451.254 67.0928 450.172 64.6399C449.09 62.187 449.306 59.0849 450.821 55.1892L451.47 53.5299C452.985 49.6342 454.933 47.1813 457.386 46.0992C459.839 45.017 462.941 45.2335 466.837 46.7485L486.243 54.3235L483.213 62.0428L466.043 55.3335C463.807 54.4678 462.292 55.117 461.426 57.3535L460.993 58.4356C460.127 60.672 460.777 62.1871 463.013 63.0528L472.969 66.9485C476.576 68.3913 478.885 70.267 479.895 72.5756C480.905 74.9563 480.76 77.9142 479.317 81.5213L478.235 84.2628C476.792 87.8699 474.917 90.1785 472.608 91.1885C470.227 92.1985 467.27 92.0542 463.662 90.6113C461.787 89.8899 459.839 89.0963 457.747 88.1585L452.769 85.9221C449.089 84.2628 445.338 82.4592 441.442 80.5835L444.4 73.2971Z" fill="#0E0628"/>
<path d="M511.204 115.284L492.952 104.174L497.281 97.1041L501.826 99.8455L514.811 78.5634L510.266 75.822L514.595 68.752L532.847 79.862L528.519 86.932L523.974 84.1905L510.988 105.473L515.533 108.214L511.204 115.284Z" fill="#0E0628"/>
<path d="M542.586 128.631L558.963 142.771L553.552 149.047L529.096 127.909L556.221 96.4548L564.301 103.453L542.586 128.631Z" fill="#0E0628"/>
<path d="M588.469 190.169L567.98 164.414L600.445 138.586L620.933 164.341L614.44 169.536L600.589 152.149L594.313 157.127L605.206 170.834L598.713 176.029L587.82 162.321L581.11 167.66L594.962 185.046L588.469 190.169Z" fill="#0E0628"/>
<path d="M627.355 236.773C623.675 238.648 620.573 239.153 618.048 238.36C615.523 237.566 613.287 235.258 611.411 231.578L604.702 218.376C602.826 214.697 602.321 211.595 603.115 209.07C603.908 206.545 606.217 204.308 609.896 202.433L626.777 193.848C630.457 191.972 633.559 191.467 636.084 192.261C638.609 193.054 640.845 195.363 642.721 199.042L649.43 212.244C651.306 215.923 651.811 219.026 651.017 221.551C650.224 224.076 647.915 226.312 644.236 228.188L627.355 236.773ZM639.402 218.665C641.495 217.583 642.072 215.996 640.99 213.903L636.445 204.886C635.362 202.793 633.775 202.216 631.683 203.298L614.802 211.883C612.71 212.966 612.132 214.553 613.215 216.645L617.76 225.663C618.842 227.755 620.429 228.26 622.521 227.25L639.402 218.665Z" fill="#0E0628"/>
<path d="M658.592 258.271C652.171 259.714 645.606 256.323 643.153 250.191C642.937 249.686 642.36 249.398 641.783 249.542C641.205 249.686 640.917 250.263 641.061 250.841C642.504 257.261 639.041 263.826 632.909 266.279C632.404 266.496 632.116 267.073 632.26 267.65C632.404 268.227 632.981 268.516 633.558 268.371C639.979 266.928 646.544 270.319 648.997 276.451C649.213 276.956 649.791 277.245 650.368 277.101C650.945 276.956 651.233 276.379 651.089 275.802C649.646 269.381 653.109 262.816 659.241 260.363C659.746 260.147 660.035 259.57 659.891 258.993C659.746 258.416 659.097 258.127 658.592 258.271Z" fill="#0E0628"/>
<path d="M48.408 258.271C54.8287 259.714 61.3937 256.323 63.8465 250.191C64.063 249.686 64.6401 249.398 65.2173 249.542C65.7944 249.686 66.083 250.263 65.9387 250.841C64.4958 257.261 67.9587 263.826 74.0908 266.279C74.5958 266.496 74.8844 267.073 74.7401 267.65C74.5958 268.227 74.0187 268.516 73.4415 268.371C67.0208 266.928 60.4558 270.319 58.003 276.451C57.7865 276.956 57.2094 277.245 56.6323 277.101C56.0551 276.956 55.7665 276.379 55.9108 275.802C57.3537 269.381 53.8908 262.816 47.7587 260.363C47.2537 260.147 46.9651 259.57 47.1094 258.993C47.3258 258.488 47.903 258.127 48.408 258.271Z" fill="#0E0628"/>
<path d="M69.4736 478.668C71.5657 483.79 73.0807 487.253 73.8743 489.056C74.0907 489.489 74.3793 489.778 74.74 489.85C75.1007 489.922 75.4615 489.922 75.8943 489.778L78.3472 488.623L75.3893 482.347C74.4515 480.399 74.235 478.812 74.74 477.513C75.1729 476.215 76.3993 475.133 78.275 474.195L79.0686 473.834C81.0165 472.896 82.6036 472.68 83.9022 473.185C85.2007 473.618 86.2829 474.844 87.2207 476.72L91.7657 486.315L87.9422 488.118L83.9022 479.606C83.3972 478.523 82.6036 478.235 81.4493 478.74L80.8722 479.028C79.79 479.533 79.5015 480.327 80.0065 481.481L82.315 486.387C83.1807 488.191 83.3972 489.706 82.8922 490.932C82.4593 492.158 81.305 493.241 79.5736 494.034L78.2029 494.683C76.3993 495.549 74.8843 495.766 73.6579 495.261C72.4315 494.828 71.3493 493.673 70.5557 491.942C70.1229 491.004 69.69 489.994 69.185 488.984L68.1029 486.387C67.3093 484.511 66.5157 482.491 65.7222 480.399L69.4736 478.668Z" fill="black"/>
<path d="M81.3052 511.493L78.9966 507.597L96.0223 504.567L98.403 508.535L87.6537 522.098L85.3452 518.202L87.293 515.821L84.3352 510.843L81.3052 511.493ZM87.4373 510.266L89.313 513.44L93.0644 509.04L87.4373 510.266Z" fill="black"/>
<path d="M99.7736 531.476L111.317 528.23L113.914 531.909L97.1044 536.166L94.4351 532.342L104.174 518.058L106.771 521.737L99.7736 531.476Z" fill="black"/>
<path d="M114.924 558.962L106.771 549.079L119.252 538.762L127.404 548.646L124.879 550.738L119.396 544.029L117.016 546.049L121.344 551.315L118.819 553.407L114.491 548.141L111.894 550.305L117.376 557.015L114.924 558.962Z" fill="black"/>
<path d="M138.154 583.13L135.124 580.245L144.069 570.866L140.534 567.548L142.771 565.167L152.799 574.762L150.562 577.143L147.027 573.824L138.154 583.13Z" fill="black"/>
<path d="M160.302 602.176L157.055 599.507L161.239 594.385L156.767 590.705L152.582 595.828L149.336 593.158L159.58 580.605L162.827 583.275L158.787 588.18L163.259 591.86L167.299 586.954L170.546 589.623L160.302 602.176Z" fill="black"/>
<path d="M179.491 616.1L168.958 608.741L178.193 595.467L188.726 602.825L186.85 605.495L179.708 600.517L177.904 603.114L183.531 607.01L181.656 609.679L176.028 605.783L174.081 608.525L181.223 613.503L179.491 616.1Z" fill="black"/>
<path d="M218.016 627.859L212.461 631.538L209.575 630.023L209.359 623.386L205.247 631.394L201.567 629.518L208.998 615.09L212.894 617.11L213.11 626.849L221.118 621.366L225.014 623.386L217.583 637.815L213.904 635.939L218.016 627.859Z" fill="black"/>
<path d="M231.002 643.73L226.817 641.999L238.649 629.302L242.905 631.033L242.472 648.347L238.288 646.616L238.432 643.514L233.094 641.35L231.002 643.73ZM235.114 639.041L238.577 640.412L238.937 634.712L235.114 639.041Z" fill="black"/>
<path d="M265.414 656.067L261.229 654.768L258.849 643.803L255.891 653.037L251.923 651.81L256.829 636.372L261.013 637.67L263.394 648.636L266.351 639.402L270.319 640.628L265.414 656.067Z" fill="black"/>
<path d="M279.986 659.818L275.946 658.88L279.626 643.081L283.666 644.019L282.223 650.223L284.243 650.728L289.221 645.317L293.477 646.327L287.273 653.109L289.798 662.127L285.541 661.117L283.521 653.903L281.501 653.398L279.986 659.818Z" fill="black"/>
<path d="M307.545 665.157L299.321 663.858L299.826 660.684L301.918 661.045L303.433 651.45L301.341 651.089L301.846 647.915L310.07 649.213L309.565 652.388L307.473 652.027L305.958 661.622L308.05 661.983L307.545 665.157Z" fill="black"/>
<path d="M331.857 667.826L327.457 667.466L322.767 657.293L321.902 666.961L317.79 666.6L319.232 650.44L323.633 650.8L328.322 660.973L329.188 651.305L333.3 651.666L331.857 667.826Z" fill="black"/>
<path d="M351.985 652.316C353.717 652.316 355.015 652.821 355.953 653.758C356.819 654.696 357.252 655.995 357.252 657.726L357.18 663.281C357.18 665.013 356.675 666.311 355.737 667.249C354.799 668.187 353.5 668.548 351.769 668.548L342.751 668.403L343.04 652.243L351.985 652.316ZM353.067 657.654C353.067 656.283 352.418 655.562 351.047 655.562L347.08 655.49L346.935 665.229L350.903 665.301C352.274 665.301 352.995 664.652 352.995 663.281L353.067 657.654Z" fill="black"/>
<path d="M397.219 661.117C397.435 662.704 397.147 663.931 396.57 664.724C395.92 665.518 394.766 666.023 393.179 666.239L387.407 666.888C385.82 667.105 384.594 666.816 383.8 666.239C383.007 665.59 382.502 664.436 382.285 662.848L381.42 655.49C381.203 653.903 381.492 652.676 382.069 651.883C382.646 651.089 383.872 650.584 385.46 650.368L391.231 649.718C392.818 649.502 394.045 649.791 394.838 650.368C395.632 651.017 396.137 652.171 396.353 653.758L397.219 661.117ZM392.241 654.263C392.169 653.326 391.592 652.965 390.726 653.037L386.83 653.47C385.892 653.542 385.532 654.119 385.604 654.985L386.47 662.343C386.542 663.281 387.119 663.642 387.985 663.57L391.88 663.137C392.818 663.065 393.179 662.488 393.107 661.622L392.241 654.263Z" fill="black"/>
<path d="M422.108 661.045L417.779 661.91L410.42 653.47L412.296 662.993L408.184 663.786L405.01 647.915L409.338 647.049L416.697 655.49L414.821 645.967L418.933 645.173L422.108 661.045Z" fill="black"/>
<path d="M452.119 648.203L462.58 644.596L463.951 648.636L448.296 653.975L441.37 633.847L446.564 632.043L452.119 648.203Z" fill="black"/>
<path d="M478.957 624.757L482.78 623.025L487.614 633.775C488.263 635.218 488.407 636.444 488.047 637.454C487.686 638.464 486.748 639.258 485.305 639.907L480.472 642.071C479.029 642.72 477.802 642.865 476.792 642.504C475.854 642.143 474.989 641.205 474.339 639.763L469.506 629.013L473.329 627.282L478.163 638.031C478.524 638.897 479.173 639.113 479.967 638.753L483.141 637.31C484.007 636.949 484.223 636.3 483.862 635.506L478.957 624.757Z" fill="black"/>
<path d="M510.122 626.561C507.237 628.508 504.856 630.023 502.836 631.106C501.538 631.827 500.383 632.043 499.373 631.755C498.435 631.466 497.57 630.673 496.848 629.374L493.313 622.881C492.52 621.438 492.303 620.284 492.592 619.274C492.88 618.264 493.746 617.398 495.189 616.605L502.475 612.637L504.063 615.451L497.57 618.986C496.776 619.418 496.56 620.068 496.993 620.861L500.527 627.354C500.672 627.643 500.96 627.859 501.177 627.931C501.393 628.003 501.754 628.003 502.043 627.787C502.331 627.643 502.62 627.426 502.98 627.282C503.341 627.066 503.63 626.921 503.99 626.705C504.351 626.488 504.712 626.272 505.072 626.056C505.433 625.839 505.938 625.551 506.443 625.19C507.02 624.829 507.742 624.396 508.535 623.819L510.122 626.561Z" fill="black"/>
<path d="M522.531 619.202L519.068 621.438L510.267 607.875L513.729 605.639L517.192 610.978L518.924 609.823L518.491 602.537L522.17 600.156L522.747 609.318L530.972 613.719L527.292 616.1L520.727 612.493L518.996 613.647L522.531 619.202Z" fill="black"/>
<path d="M528.735 595.539L532.198 592.87L539.99 596.766L538.186 588.181L541.649 585.511L544.03 598.713L546.627 602.104L543.308 604.629L540.711 601.238L528.735 595.539Z" fill="black"/>
<path d="M566.322 555.716L578.658 562.57L571.011 550.81L575.123 546.554L586.45 565.455L582.482 569.64L570.434 563.075L577.432 574.834L573.464 579.018L554.058 568.413L558.17 564.157L570.218 571.371L562.931 559.251L566.322 555.716Z" fill="black"/>
<path d="M606.721 540.566L604.196 543.885L599.002 539.845L595.467 544.39L600.661 548.43L598.136 551.748L585.295 541.793L587.82 538.474L592.87 542.37L596.405 537.825L591.355 533.929L593.88 530.611L606.721 540.566Z" fill="black"/>
<path d="M620.068 520.943L612.998 531.693L599.507 522.747L606.577 511.998L609.318 513.801L604.557 521.015L607.154 522.747L610.905 517.048L613.647 518.851L609.895 524.55L612.709 526.426L617.47 519.212L620.068 520.943Z" fill="black"/>
<path d="M631.683 500.888L625.407 512.142L611.267 504.278L617.543 493.096L620.357 494.683L616.1 502.258L618.842 503.773L622.16 497.785L624.974 499.373L621.655 505.36L624.613 507.02L628.869 499.445L631.683 500.888Z" fill="black"/>
<path d="M635.074 486.603L638.609 478.956L641.567 480.327L636.228 491.726L621.511 484.872L623.242 481.121L635.074 486.603Z" fill="black"/>
</svg>
